<svg xmlns="http://www.w3.org/2000/svg" xmlns:xlink="http://www.w3.org/1999/xlink" xmlns:lucid="lucid" width="2083.79" height="2322"><g transform="translate(1321 -1739)" lucid:page-tab-id="0_0"><path d="M-1500 1500h2500v3000h-2500z" fill="#fff"/><path d="M-1320 2161.9V2126a6 6 0 0 1 6-6h512.2v41.9zM-801.8 2120H-140v41.9h-661.8zM-140 2120h895.8a6 6 0 0 1 6 6v35.9H-140z" stroke="#000" stroke-width="2" fill="#fff"/><path d="M-801.8 3860H-1314a6 6 0 0 1-6-6V2161.9h518.2zM-801.8 2161.9H-140V3860h-661.8zM761.8 2161.9V3854a6 6 0 0 1-6 6H-140V2161.9z" stroke="#000" stroke-width="2" fill="none"/><use xlink:href="#a" transform="matrix(1,0,0,1,-1320,2120) translate(201.58441840277777 29.08376736111111)"/><use xlink:href="#b" transform="matrix(1,0,0,1,-1320,2120) translate(251.61697048611111 29.08376736111111)"/><use xlink:href="#c" transform="matrix(1,0,0,1,-801.7903579620763,2120) translate(257.50824652777777 29.08376736111111)"/><use xlink:href="#d" transform="matrix(1,0,0,1,-801.7903579620763,2120) translate(331.65104166666663 29.08376736111111)"/><use xlink:href="#e" transform="matrix(1,0,0,1,-140,2120) translate(388.63563368055554 29.08376736111111)"/><use xlink:href="#f" transform="matrix(1,0,0,1,-140,2120) translate(467.7263454861111 29.08376736111111)"/><path d="M-407.02 1740c22.1 0 40 17.9 40 40s-17.9 40-40 40h-168.9c-22.1 0-40-17.9-40-40s17.9-40 40-40z" stroke="#000" stroke-width="2" fill="#fff"/><use xlink:href="#g" transform="matrix(1,0,0,1,-610.9146825830038,1745) translate(94.451171875 43.40277777777778)"/><path d="M-622.94 2335.87a6 6 0 0 1 6-6H-366a6 6 0 0 1 6 6v68a6 6 0 0 1-6 6h-250.94a6 6 0 0 1-6-6z" stroke="#000" stroke-width="2" fill="#fff"/><use xlink:href="#h" transform="matrix(1,0,0,1,-610.9384953276526,2341.8670377104672) translate(40.127170138888886 35.52777777777778)"/><use xlink:href="#d" transform="matrix(1,0,0,1,-610.9384953276526,2341.8670377104672) translate(126.03211805555554 35.52777777777778)"/><path d="M-622.94 1966.95a6 6 0 0 1 6-6H-366a6 6 0 0 1 6 6v68a6 6 0 0 1-6 6h-250.94a6 6 0 0 1-6-6z" stroke="#000" stroke-width="2" fill="#fff"/><use xlink:href="#i" transform="matrix(1,0,0,1,-610.9384953276526,1972.9537720668154) translate(59.40885416666667 35.52777777777778)"/><use xlink:href="#j" transform="matrix(1,0,0,1,-610.9384953276526,1972.9537720668154) translate(117.08029513888889 35.52777777777778)"/><use xlink:href="#k" transform="matrix(1,0,0,1,-610.9384953276526,1972.9537720668154) translate(135.80859375 35.52777777777778)"/><path d="M-491.47 1821.5v122.07" stroke="#3a414a" fill="none"/><path d="M-491 1821.5h-.94v-.5h.95z" stroke="#3a414a" stroke-width=".05" fill="#3a414a"/><path d="M-491.47 1958.34l-4.63-14.27h9.27z" stroke="#3a414a" fill="#3a414a"/><path d="M124.73 2302.34a11.04 11.04 0 0 1 10.54 0l119.46 64.9a3.26 3.26 0 0 1 0 5.74l-119.46 64.9a11.04 11.04 0 0 1-10.54 0l-119.46-64.9a3.26 3.26 0 0 1 0-5.73z" stroke="#000" stroke-width="2" fill="#fff"/><use xlink:href="#l" transform="matrix(1,0,0,1,5,2304.4764428454846) translate(39.10547743055557 75.15277777777777)"/><use xlink:href="#m" transform="matrix(1,0,0,1,5,2304.4764428454846) translate(83.12674479166667 75.15277777777777)"/><use xlink:href="#n" transform="matrix(1,0,0,1,5,2304.4764428454846) translate(126.70313368055555 75.15277777777777)"/><path d="M-358.5 2369.87h180.16a.12.12 0 0 1 .12.12.12.12 0 0 0 .12.1h164.28" stroke="#3a414a" fill="none"/><path d="M-358.5 2370.34h-.5v-.95h.5z" stroke="#3a414a" stroke-width=".05" fill="#3a414a"/><path d="M.94 2370.1l-14.26 4.65v-9.27z" stroke="#3a414a" fill="#3a414a"/><path d="M-1.47 3083.1a6 6 0 0 1 6-6h250.94a6 6 0 0 1 6 6v68a6 6 0 0 1-6 6H4.53a6 6 0 0 1-6-6z" stroke="#000" stroke-width="2" fill="#fff"/><use xlink:href="#o" transform="matrix(1,0,0,1,10.530752336173691,3089.0920126784463) translate(48.35199652777777 35.52777777777778)"/><use xlink:href="#d" transform="matrix(1,0,0,1,10.530752336173691,3089.0920126784463) translate(117.80729166666666 35.52777777777778)"/><path d="M-1.47 2765.48a6 6 0 0 1 6-6h250.94a6 6 0 0 1 6 6v68a6 6 0 0 1-6 6H4.53a6 6 0 0 1-6-6z" stroke="#000" stroke-width="2" fill="#fff"/><use xlink:href="#o" transform="matrix(1,0,0,1,10.530752336173691,2771.4764428454846) translate(31.70703125 35.52777777777778)"/><use xlink:href="#p" transform="matrix(1,0,0,1,10.530752336173691,2771.4764428454846) translate(101.16232638888889 35.52777777777778)"/><path d="M424.63 2370.1H380.5a6 6 0 0 0-6 6v735a6 6 0 0 1-6 6h-89.65" stroke="#3a414a" fill="none"/><path d="M425.13 2370.1l.05.5h-.57v-.96h.58z" stroke="#3a414a" stroke-width=".05" fill="#3a414a"/><path d="M264.1 3117.1l14.25-4.64v9.27z" stroke="#3a414a" fill="#3a414a"/><use xlink:href="#q" transform="matrix(1,0,0,1,394.05564776638175,2344.601874223361) translate(0 17.22222222222222)"/><path d="M-622.94 2512.4a6 6 0 0 1 6-6H-366a6 6 0 0 1 6 6v68a6 6 0 0 1-6 6h-250.94a6 6 0 0 1-6-6z" stroke="#000" stroke-width="2" fill="#fff"/><use xlink:href="#r" transform="matrix(1,0,0,1,-610.9384953276526,2518.406147176712) translate(31.479166666666657 21.52777777777778)"/><use xlink:href="#s" transform="matrix(1,0,0,1,-610.9384953276526,2518.406147176712) translate(88.94444444444443 21.52777777777778)"/><use xlink:href="#t" transform="matrix(1,0,0,1,-610.9384953276526,2518.406147176712) translate(138.97699652777777 21.52777777777778)"/><use xlink:href="#u" transform="matrix(1,0,0,1,-610.9384953276526,2518.406147176712) translate(163.73828125 21.52777777777778)"/><use xlink:href="#b" transform="matrix(1,0,0,1,-610.9384953276526,2518.406147176712) translate(86.60069444444444 53.79340277777778)"/><path d="M-624.43 2546.4h-276.52" stroke="#3a414a" fill="none"/><path d="M-623.94 2546.88h-.5v-.95h.5z" stroke="#3a414a" stroke-width=".05" fill="#3a414a"/><path d="M-915.72 2546.4l14.27-4.63v9.27z" stroke="#3a414a" fill="#3a414a"/><path d="M-624.44 3440h-276.7" stroke="#3a414a" fill="none"/><path d="M-623.94 3440.47h-.5v-.94h.5z" stroke="#3a414a" stroke-width=".05" fill="#3a414a"/><path d="M-915.9 3440l14.25-4.64v9.28z" stroke="#3a414a" fill="#3a414a"/><path d="M-2.97 2799.48H-188.5a6 6 0 0 1-6-6V2552.4a6 6 0 0 0-6-6h-142.12" stroke="#3a414a" fill="none"/><path d="M-2.47 2799.95h-.5v-.95h.5z" stroke="#3a414a" stroke-width=".05" fill="#3a414a"/><path d="M-357.38 2546.4l14.26-4.63v9.27z" stroke="#3a414a" fill="#3a414a"/><path d="M-622.94 2685.48a6 6 0 0 1 6-6H-366a6 6 0 0 1 6 6v68a6 6 0 0 1-6 6h-250.94a6 6 0 0 1-6-6z" stroke="#000" stroke-width="2" fill="#fff"/><use xlink:href="#v" transform="matrix(1,0,0,1,-610.9384953276526,2691.4764428454846) translate(53.03949652777777 35.52777777777778)"/><use xlink:href="#k" transform="matrix(1,0,0,1,-610.9384953276526,2691.4764428454846) translate(142.17795138888889 35.52777777777778)"/><path d="M-2.97 3117.1H-214a6 6 0 0 1-6-6v-385.62a6 6 0 0 0-6-6h-116.62" stroke="#3a414a" fill="none"/><path d="M-2.47 3117.57h-.5v-.95h.5z" stroke="#3a414a" stroke-width=".05" fill="#3a414a"/><path d="M-357.38 2719.48l14.26-4.64v9.27z" stroke="#3a414a" fill="#3a414a"/><path d="M-622.94 3241.98a6 6 0 0 1 6-6H-366a6 6 0 0 1 6 6v68a6 6 0 0 1-6 6h-250.94a6 6 0 0 1-6-6z" stroke="#000" stroke-width="2" fill="#fff"/><use xlink:href="#w" transform="matrix(1,0,0,1,-610.9384953276526,3247.979278600495) translate(41.619140625 35.52777777777778)"/><use xlink:href="#d" transform="matrix(1,0,0,1,-610.9384953276526,3247.979278600495) translate(124.54014756944444 35.52777777777778)"/><path d="M-622.94 3406a6 6 0 0 1 6-6H-366a6 6 0 0 1 6 6v68a6 6 0 0 1-6 6h-250.94a6 6 0 0 1-6-6z" stroke="#000" stroke-width="2" fill="#fff"/><use xlink:href="#x" transform="matrix(1,0,0,1,-610.9384953276526,3412) translate(31.71245659722223 35.52777777777778)"/><use xlink:href="#y" transform="matrix(1,0,0,1,-610.9384953276526,3412) translate(71.81662326388889 35.52777777777778)"/><use xlink:href="#k" transform="matrix(1,0,0,1,-610.9384953276526,3412) translate(163.50499131944443 35.52777777777778)"/><path d="M-496.74 3566.9a11.04 11.04 0 0 1 10.54 0l119.46 64.9a3.26 3.26 0 0 1 0 5.72l-119.46 64.9a11.04 11.04 0 0 1-10.54 0l-119.46-64.9a3.26 3.26 0 0 1 0-5.73z" stroke="#000" stroke-width="2" fill="#fff"/><use xlink:href="#z" transform="matrix(1,0,0,1,-616.4692476638263,3569.020721399505) translate(81.31467881944445 75.15277777777777)"/><use xlink:href="#k" transform="matrix(1,0,0,1,-616.4692476638263,3569.020721399505) translate(124.91276909722222 75.15277777777777)"/><path d="M-491.47 3317.48v65.14" stroke="#3a414a" fill="none"/><path d="M-491 3317.5h-.94v-.52h.95z" stroke="#3a414a" stroke-width=".05" fill="#3a414a"/><path d="M-491.47 3397.38l-4.63-14.26h9.27z" stroke="#3a414a" fill="#3a414a"/><path d="M-1050 3481.5v147.16a6 6 0 0 0 6 6h408.7" stroke="#3a414a" fill="none"/><path d="M-1049.53 3481.5h-.94v-.5h.94z" stroke="#3a414a" stroke-width=".05" fill="#3a414a"/><path d="M-620.52 3634.66l-14.27 4.63V3630z" stroke="#3a414a" fill="#3a414a"/><path d="M-663.46 3518.53l.07.88.2.85.34.8.45.74.56.65.66.56.73.47.8.33.85.2.88.07h160.47l1 .08.98.24.94.37.87.53.77.66.67.78.53.86.4.94.23 1 .08 1v33.5h-.94v-33.48l-.07-.88-.22-.84-.33-.8-.45-.74-.56-.66-.66-.56-.74-.46-.8-.33-.85-.2-.9-.08h-160.46l-1-.08-.98-.24-.94-.38-.87-.54-.77-.66-.66-.77-.53-.86-.4-.95-.24-1-.07-1V3044.2h.94zm23.14-1148.2h-17.6l-.88.08-.85.2-.8.35-.73.45-.66.56-.57.66-.46.74-.33.8-.2.84-.06.9v646.78h-.95v-646.83l.06-1 .24-.98.4-.94.52-.87.66-.77.77-.67.87-.53.94-.4 1-.23.98-.08h17.64z" stroke="#3a414a" stroke-width=".05" fill="#3a414a"/><path d="M-491 3564.57l-.47-.03-.47.03v-.54h.95z" fill="#3a414a"/><path stroke="#3a414a" stroke-width=".05" fill="#3a414a"/><path d="M-625.56 2369.87l-14.26 4.63v-9.27z" fill="#3a414a"/><path d="M-624.02 2369.87l-16.28 5.3v-10.6zm-15.33 3.98l12.26-3.98-12.25-3.98z" stroke="#3a414a" stroke-width=".05" fill="#3a414a"/><use xlink:href="#A" transform="matrix(1,0,0,1,-679.7370564387647,3022.685048630824) translate(0 17.22222222222222)"/><path d="M-1181.47 2512.4a6 6 0 0 1 6-6h250.94a6 6 0 0 1 6 6v68a6 6 0 0 1-6 6h-250.94a6 6 0 0 1-6-6z" stroke="#000" stroke-width="2" fill="#fff"/><use xlink:href="#B" transform="matrix(1,0,0,1,-1169.4692476638263,2518.406147176712) translate(61.58441840277777 35.52777777777778)"/><use xlink:href="#k" transform="matrix(1,0,0,1,-1169.4692476638263,2518.406147176712) translate(133.63302951388889 35.52777777777778)"/><path d="M-411.47 3980c22.1 0 40 17.9 40 40s-17.9 40-40 40h-160c-22.1 0-40-17.9-40-40s17.9-40 40-40z" stroke="#000" stroke-width="2" fill="#fff"/><use xlink:href="#C" transform="matrix(1,0,0,1,-606.4692476638263,3985) translate(94.95334201388889 43.40277777777778)"/><path d="M-491 3962.62h-.94V3745.8h.95zm0-238.33h-.94v-19.03h.95z" stroke="#3a414a" stroke-width=".05" fill="#3a414a"/><path d="M-491.47 3704.77l.48-.03v.54h-.94v-.54z" fill="#3a414a"/><path stroke="#3a414a" stroke-width=".05" fill="#3a414a"/><path d="M-491.47 3977.38l-4.63-14.26h9.27z" fill="#3a414a"/><path d="M-491.47 3978.92l-5.3-16.28h10.6zm-3.98-15.33l3.98 12.24 3.98-12.25z" stroke="#3a414a" stroke-width=".05" fill="#3a414a"/><use xlink:href="#q" transform="matrix(1,0,0,1,-503.6958101638263,3724.294361258314) translate(0 17.22222222222222)"/><path d="M-1181.47 3406a6 6 0 0 1 6-6h250.94a6 6 0 0 1 6 6v68a6 6 0 0 1-6 6h-250.94a6 6 0 0 1-6-6z" stroke="#000" stroke-width="2" fill="#fff"/><use xlink:href="#D" transform="matrix(1,0,0,1,-1169.4692476638263,3412) translate(48.303168402777786 35.52777777777778)"/><use xlink:href="#k" transform="matrix(1,0,0,1,-1169.4692476638263,3412) translate(146.91427951388889 35.52777777777778)"/><path d="M492.56 3291.68a6 6 0 0 1 6-6h89.32c13.63 0 24.68 11.05 24.68 24.68 0 13.63-11.05 24.68-24.68 24.68h-89.32a6 6 0 0 1-6-6z" stroke="#000" stroke-width="2" fill="#fff"/><use xlink:href="#E" transform="matrix(1,0,0,1,497.5626502685184,3290.6783147158203) translate(25.491536458333336 29.02777777777778)"/><path d="M-1.47 3241.98a6 6 0 0 1 6-6h250.94a6 6 0 0 1 6 6v68a6 6 0 0 1-6 6H4.53a6 6 0 0 1-6-6z" stroke="#000" stroke-width="2" fill="#fff"/><use xlink:href="#F" transform="matrix(1,0,0,1,10.530752336173691,3247.979278600495) translate(61.29144965277778 35.52777777777778)"/><use xlink:href="#d" transform="matrix(1,0,0,1,10.530752336173691,3247.979278600495) translate(104.86783854166666 35.52777777777778)"/><path d="M-358.5 3275.98h339.65" stroke="#3a414a" fill="none"/><path d="M-358.5 3276.45h-.5v-.95h.5z" stroke="#3a414a" stroke-width=".05" fill="#3a414a"/><path d="M-4.1 3275.98l-14.25 4.63v-9.26z" stroke="#3a414a" fill="#3a414a"/><path d="M421.1 3526a6 6 0 0 1 6-6h250.93a6 6 0 0 1 6 6v68a6 6 0 0 1-6 6H427.1a6 6 0 0 1-6-6z" stroke="#000" stroke-width="2" fill="#fff"/><use xlink:href="#G" transform="matrix(1,0,0,1,433.0934026046921,3532) translate(30.361545138888886 35.52777777777778)"/><use xlink:href="#d" transform="matrix(1,0,0,1,433.0934026046921,3532) translate(135.79774305555554 35.52777777777778)"/><path d="M552.56 3336.54v166.08" stroke="#3a414a" fill="none"/><path d="M553.04 3336.55h-.95v-.5h.94z" stroke="#3a414a" stroke-width=".05" fill="#3a414a"/><path d="M552.56 3517.38l-4.63-14.26h9.27z" stroke="#3a414a" fill="#3a414a"/><path d="M421.1 3083.7a6 6 0 0 1 6-6h250.93a6 6 0 0 1 6 6v68a6 6 0 0 1-6 6H427.1a6 6 0 0 1-6-6z" stroke="#000" stroke-width="2" fill="#fff"/><use xlink:href="#H" transform="matrix(1,0,0,1,433.0934026046921,3089.7018610013856) translate(45.17816840277777 21.52777777777778)"/><use xlink:href="#I" transform="matrix(1,0,0,1,433.0934026046921,3089.7018610013856) translate(120.98111979166666 21.52777777777778)"/><use xlink:href="#J" transform="matrix(1,0,0,1,433.0934026046921,3089.7018610013856) translate(60.35828993055557 53.79340277777778)"/><path d="M547.3 2302.34a11.04 11.04 0 0 1 10.54 0l119.45 64.9a3.26 3.26 0 0 1 0 5.74l-119.46 64.9a11.04 11.04 0 0 1-10.55 0l-119.46-64.9a3.26 3.26 0 0 1 0-5.73z" stroke="#000" stroke-width="2" fill="#fff"/><use xlink:href="#e" transform="matrix(1,0,0,1,427.5626502685184,2304.4764428454846) translate(72.23264756944445 58.65277777777778)"/><use xlink:href="#K" transform="matrix(1,0,0,1,427.5626502685184,2304.4764428454846) translate(151.323359375 58.65277777777778)"/><use xlink:href="#L" transform="matrix(1,0,0,1,427.5626502685184,2304.4764428454846) translate(60.1829513888889 90.91840277777777)"/><path d="M130.47 2503.62h-.94v-35h.94zm0-56.5h-.94v-6.4h.94z" stroke="#3a414a" stroke-width=".05" fill="#3a414a"/><path d="M130 2440.22l.47-.02v.54h-.94v-.54z" fill="#3a414a"/><path stroke="#3a414a" stroke-width=".05" fill="#3a414a"/><path d="M130 2518.38l-4.64-14.26h9.27z" fill="#3a414a"/><path d="M130 2519.92l-5.3-16.28h10.6zm-3.98-15.33l3.98 12.24 3.98-12.25z" stroke="#3a414a" stroke-width=".05" fill="#3a414a"/><use xlink:href="#q" transform="matrix(1,0,0,1,117.7734375,2447.1231786345156) translate(0 17.22222222222222)"/><path d="M552.56 3159.2v109.1" stroke="#3a414a" fill="none"/><path d="M553.04 3159.22h-.95v-.52h.94z" stroke="#3a414a" stroke-width=".05" fill="#3a414a"/><path d="M552.56 3283.06l-4.63-14.27h9.27z" stroke="#3a414a" fill="#3a414a"/><path d="M124.73 3401.3a11.04 11.04 0 0 1 10.54 0l119.46 64.9a3.26 3.26 0 0 1 0 5.74l-119.46 64.9a11.04 11.04 0 0 1-10.54 0l-119.46-64.9a3.26 3.26 0 0 1 0-5.73z" stroke="#000" stroke-width="2" fill="#fff"/><use xlink:href="#M" transform="matrix(1,0,0,1,5,3403.4358864223204) translate(60.22635416666666 58.65277777777778)"/><use xlink:href="#N" transform="matrix(1,0,0,1,5,3403.4358864223204) translate(112.114375 58.65277777777778)"/><use xlink:href="#O" transform="matrix(1,0,0,1,5,3403.4358864223204) translate(160.37826388888888 58.65277777777778)"/><use xlink:href="#P" transform="matrix(1,0,0,1,5,3403.4358864223204) translate(55.9403298611111 90.91840277777777)"/><use xlink:href="#Q" transform="matrix(1,0,0,1,5,3403.4358864223204) translate(100.16776041666667 90.91840277777777)"/><use xlink:href="#R" transform="matrix(1,0,0,1,5,3403.4358864223204) translate(152.05578125 90.91840277777777)"/><path d="M130 3317.48v65.1" stroke="#3a414a" fill="none"/><path d="M130.47 3317.5h-.94v-.52h.94z" stroke="#3a414a" stroke-width=".05" fill="#3a414a"/><path d="M130 3397.34l-4.64-14.26h9.27z" stroke="#3a414a" fill="#3a414a"/><path d="M257.94 3469.07H368.5a6 6 0 0 0 6-6v-146.7a6 6 0 0 1 6-6h94.68" stroke="#3a414a" fill="none"/><path d="M257.95 3469.55h-.56l.04-.48-.05-.47h.55z" stroke="#3a414a" stroke-width=".05" fill="#3a414a"/><path d="M489.94 3310.36L475.7 3315v-9.28z" stroke="#3a414a" fill="#3a414a"/><use xlink:href="#A" transform="matrix(1,0,0,1,261.6295332525731,3443.561317800197) translate(0 17.22222222222222)"/><path d="M552.56 2440.72v619.6" stroke="#3a414a" fill="none"/><path d="M552.56 2440.22l.48-.02v.54h-.95v-.54z" stroke="#3a414a" stroke-width=".05" fill="#3a414a"/><path d="M552.56 3075.08l-4.63-14.26h9.27z" stroke="#3a414a" fill="#3a414a"/><use xlink:href="#A" transform="matrix(1,0,0,1,560.5626502685184,2449.0180913683785) translate(0 17.22222222222222)"/><path d="M124.73 2522.34a11.04 11.04 0 0 1 10.54 0l119.46 64.9a3.26 3.26 0 0 1 0 5.74l-119.46 64.9a11.04 11.04 0 0 1-10.54 0l-119.46-64.9a3.26 3.26 0 0 1 0-5.73z" stroke="#000" stroke-width="2" fill="#fff"/><use xlink:href="#M" transform="matrix(1,0,0,1,5,2524.4764428454846) translate(60.22635416666666 54.52777777777778)"/><use xlink:href="#N" transform="matrix(1,0,0,1,5,2524.4764428454846) translate(112.114375 54.52777777777778)"/><use xlink:href="#S" transform="matrix(1,0,0,1,5,2524.4764428454846) translate(160.37826388888888 54.52777777777778)"/><use xlink:href="#T" transform="matrix(1,0,0,1,5,2524.4764428454846) translate(52.89128472222222 86.79340277777777)"/><use xlink:href="#Q" transform="matrix(1,0,0,1,5,2524.4764428454846) translate(103.21680555555555 86.79340277777777)"/><use xlink:href="#R" transform="matrix(1,0,0,1,5,2524.4764428454846) translate(155.1048263888889 86.79340277777777)"/><path d="M-1.47 2924.2a6 6 0 0 1 6-6h250.94a6 6 0 0 1 6 6v68a6 6 0 0 1-6 6H4.53a6 6 0 0 1-6-6z" stroke="#000" stroke-width="2" fill="#fff"/><use xlink:href="#U" transform="matrix(1,0,0,1,10.530752336173691,2930.204746756397) translate(20.22157118055557 35.52777777777778)"/><use xlink:href="#V" transform="matrix(1,0,0,1,10.530752336173691,2930.204746756397) translate(95.818359375 35.52777777777778)"/><use xlink:href="#d" transform="matrix(1,0,0,1,10.530752336173691,2930.204746756397) translate(145.93771701388889 35.52777777777778)"/><path d="M257.94 2590.1h38.53a6 6 0 0 1 6 6v356.1a6 6 0 0 1-6 6h-17.62" stroke="#3a414a" fill="none"/><path d="M257.95 2590.6h-.56l.04-.5-.05-.46h.55z" stroke="#3a414a" stroke-width=".05" fill="#3a414a"/><path d="M264.1 2958.2l14.25-4.63v9.27z" stroke="#3a414a" fill="#3a414a"/><use xlink:href="#A" transform="matrix(1,0,0,1,263.52444598643615,2564.6018742233614) translate(0 17.22222222222222)"/><path d="M130.47 2742.1h-.94v-47.97h.94zm0-69.48h-.94v-11.9h.94z" stroke="#3a414a" stroke-width=".05" fill="#3a414a"/><path d="M130 2660.22l.47-.02v.54h-.94v-.54z" fill="#3a414a"/><path stroke="#3a414a" stroke-width=".05" fill="#3a414a"/><path d="M130 2756.86l-4.64-14.27h9.27z" fill="#3a414a"/><path d="M130 2758.4l-5.3-16.28h10.6zm-3.98-15.33l3.98 12.25 3.98-12.25z" stroke="#3a414a" stroke-width=".05" fill="#3a414a"/><use xlink:href="#q" transform="matrix(1,0,0,1,117.7734375,2672.6177939642366) translate(0 17.22222222222222)"/><path d="M130 2999.7v60" stroke="#3a414a" fill="none"/><path d="M130.47 2999.72h-.94v-.5h.94z" stroke="#3a414a" stroke-width=".05" fill="#3a414a"/><path d="M130 3074.47l-4.64-14.26h9.27z" stroke="#3a414a" fill="#3a414a"/><path d="M421.1 3685.28a6 6 0 0 1 6-6h250.93a6 6 0 0 1 6 6v68a6 6 0 0 1-6 6H427.1a6 6 0 0 1-6-6z" stroke="#000" stroke-width="2" fill="#fff"/><use xlink:href="#W" transform="matrix(1,0,0,1,433.0934026046921,3691.278683918052) translate(13.163194444444457 21.52777777777778)"/><use xlink:href="#X" transform="matrix(1,0,0,1,433.0934026046921,3691.278683918052) translate(97.73350694444446 21.52777777777778)"/><use xlink:href="#Y" transform="matrix(1,0,0,1,433.0934026046921,3691.278683918052) translate(176.82421875 21.52777777777778)"/><use xlink:href="#f" transform="matrix(1,0,0,1,433.0934026046921,3691.278683918052) translate(96.68098958333334 53.79340277777778)"/><path d="M552.56 3601.5v60.4" stroke="#3a414a" fill="none"/><path d="M553.04 3601.5h-.95v-.5h.94z" stroke="#3a414a" stroke-width=".05" fill="#3a414a"/><path d="M552.56 3676.66l-4.63-14.26h9.27z" stroke="#3a414a" fill="#3a414a"/><path d="M130 2299.5V2266a6 6 0 0 1 6-6h410.56a6 6 0 0 1 6 6v17.62" stroke="#3a414a" fill="none"/><path d="M130.47 2300.02l-.47-.02-.47.02v-.53h.94z" stroke="#3a414a" stroke-width=".05" fill="#3a414a"/><path d="M552.56 2298.38l-4.63-14.26h9.27z" stroke="#3a414a" fill="#3a414a"/><g><use xlink:href="#A" transform="matrix(1,0,0,1,138.4602055514649,2234.489583333333) translate(0 17.22222222222222)"/></g><path d="M419.6 3117.7h-78a.3.3 0 0 1-.32-.3.3.3 0 0 0-.3-.3h-62.13" stroke="#3a414a" fill="none"/><path d="M420.1 3118.18h-.52v-.95h.5z" stroke="#3a414a" stroke-width=".05" fill="#3a414a"/><path d="M264.1 3117.1l14.25-4.64v9.27z" stroke="#3a414a" fill="#3a414a"/><path d="M-622.94 3083.1a6 6 0 0 1 6-6H-366a6 6 0 0 1 6 6v68a6 6 0 0 1-6 6h-250.94a6 6 0 0 1-6-6z" stroke="#000" stroke-width="2" fill="#fff"/><g><use xlink:href="#o" transform="matrix(1,0,0,1,-610.9384953276526,3089.0920126784463) translate(30.356119791666657 35.52777777777778)"/><use xlink:href="#s" transform="matrix(1,0,0,1,-610.9384953276526,3089.0920126784463) translate(99.81141493055554 35.52777777777778)"/><use xlink:href="#Z" transform="matrix(1,0,0,1,-610.9384953276526,3089.0920126784463) translate(149.84396701388889 35.52777777777778)"/></g><path d="M-491.47 3158.6v60" stroke="#3a414a" fill="none"/><path d="M-491 3158.6h-.94v-.5h.95z" stroke="#3a414a" stroke-width=".05" fill="#3a414a"/><path d="M-491.47 3233.36l-4.63-14.27h9.27z" stroke="#3a414a" fill="#3a414a"/><path d="M-496.74 2850.5a11.04 11.04 0 0 1 10.54 0l119.46 64.92a3.26 3.26 0 0 1 0 5.73l-119.46 64.9a11.04 11.04 0 0 1-10.54 0l-119.46-64.9a3.26 3.26 0 0 1 0-5.73z" stroke="#000" stroke-width="2" fill="#fff"/><g><use xlink:href="#aa" transform="matrix(1,0,0,1,-616.4692476638263,2852.648379717422) translate(35.12869791666667 75.15277777777777)"/><use xlink:href="#ab" transform="matrix(1,0,0,1,-616.4692476638263,2852.648379717422) translate(96.77149305555555 75.15277777777777)"/><use xlink:href="#ac" transform="matrix(1,0,0,1,-616.4692476638263,2852.648379717422) translate(124.71203125 75.15277777777777)"/></g><path d="M-491.47 2760.98v70.8" stroke="#3a414a" fill="none"/><path d="M-491 2761h-.94v-.52h.95z" stroke="#3a414a" stroke-width=".05" fill="#3a414a"/><path d="M-491.47 2846.55l-4.63-14.26h9.27z" stroke="#3a414a" fill="#3a414a"/><path d="M-491 3059.7h-.94v-37.75h.95zm0-59.26h-.94v-11.54h.95z" stroke="#3a414a" stroke-width=".05" fill="#3a414a"/><path d="M-491.47 2988.4l.48-.03v.54h-.94v-.53z" fill="#3a414a"/><path stroke="#3a414a" stroke-width=".05" fill="#3a414a"/><path d="M-491.47 3074.47l-4.63-14.26h9.27z" fill="#3a414a"/><path d="M-491.47 3076l-5.3-16.27h10.6zm-3.98-15.32l3.98 12.26 3.98-12.26z" stroke="#3a414a" stroke-width=".05" fill="#3a414a"/><g><use xlink:href="#q" transform="matrix(1,0,0,1,-503.6958101638263,3000.437696922571) translate(0 17.22222222222222)"/></g><path d="M-269.52 3553.98l.06.88.2.85.34.8.45.75.56.66.65.57.74.45.8.33.84.2.88.08h667.7v.94h-667.74l-1-.07-.98-.24-.94-.4-.87-.52-.78-.66-.66-.77-.53-.86-.4-.94-.23-1-.08-.98v-366.64h.96zm-5.47-636.1l1 .24.94.4.87.53.78.65.66.78.53.86.4.94.23 1 .08 1v241.6h-.96V2924.3l-.06-.88-.2-.84-.34-.8-.45-.74-.56-.66-.65-.56-.74-.46-.8-.33-.84-.2-.88-.07h-87.5v-.95H-276z" stroke="#3a414a" stroke-width=".05" fill="#3a414a"/><path d="M-363.52 2918.76h-.56l.05-.48-.05-.47h.56z" fill="#3a414a"/><path stroke="#3a414a" stroke-width=".05" fill="#3a414a"/><path d="M418.48 3560l-14.27 4.64v-9.28z" fill="#3a414a"/><path d="M420 3560l-16.26 5.3v-10.6zm-15.3 3.98l12.24-3.98-12.25-3.98z" stroke="#3a414a" stroke-width=".05" fill="#3a414a"/><g><use xlink:href="#A" transform="matrix(1,0,0,1,-337.63987722376856,2892.7738110952987) translate(0 17.22222222222222)"/></g><path d="M-269.52 3434.02l-.08 1-.24.98-.4.94-.52.87-.66.78-.77.66-.86.53-.94.4-1 .23-.98.07h-66.64v-.94h66.6l.88-.07.85-.2.8-.34.75-.45.66-.56.57-.65.45-.74.33-.8.2-.84.07-.88v-246.6h.96zM-275 2917.9l1 .22.94.4.87.53.78.65.66.78.53.86.4.94.23 1 .08 1v241.6h-.96V2924.3l-.06-.88-.2-.84-.34-.8-.45-.74-.56-.66-.65-.56-.74-.46-.8-.33-.84-.2-.88-.07h-87.5v-.95H-276z" stroke="#3a414a" stroke-width=".05" fill="#3a414a"/><path d="M-363.52 2918.76h-.56l.05-.48-.05-.47h.56z" fill="#3a414a"/><path stroke="#3a414a" stroke-width=".05" fill="#3a414a"/><path d="M-343.12 3444.64l-14.26-4.64 14.26-4.64z" fill="#3a414a"/><path d="M-342.64 3445.3l-16.28-5.3 16.28-5.3zm-13.2-5.3l12.25 3.98v-7.96z" stroke="#3a414a" stroke-width=".05" fill="#3a414a"/><g><use xlink:href="#A" transform="matrix(1,0,0,1,-285.7986111111111,3165.8709817453023) translate(0 17.22222222222222)"/></g><path d="M-491.47 2042.45v270.03" stroke="#3a414a" fill="none"/><path d="M-491 2042.47h-.94v-.52h.95z" stroke="#3a414a" stroke-width=".05" fill="#3a414a"/><path d="M-491.47 2327.25l-4.63-14.27h9.27z" stroke="#3a414a" fill="#3a414a"/><defs><path d="M598-1118v154H368v674c0 100 37 144 132 144 23 0 62-6 92-12L629-6c-37 13-88 20-134 20-193 0-307-107-307-290v-688H20v-154h168v-266h180v266h230" id="ad"/><path d="M471 26C259 26 90-98 90-318c0-256 228-303 435-329 202-27 287-16 287-108 0-139-79-219-234-219-161 0-248 86-283 164l-173-57c86-203 278-265 451-265 150 0 419 46 419 395V0H815v-152h-12C765-73 660 26 471 26zm31-159c199 0 310-134 310-271v-155c-30 35-226 55-295 64-131 17-246 59-246 186 0 116 97 176 231 176" id="ae"/><path d="M538 24C308 24 148-78 108-271l171-41c32 123 123 178 257 178 156 0 256-77 256-169 0-77-54-128-164-154l-186-44c-203-48-300-148-300-305 0-192 176-326 414-326 230 0 351 112 402 269l-163 42c-31-80-94-158-238-158-133 0-233 69-233 162 0 83 57 129 188 160l169 40c203 48 298 149 298 302 0 196-179 339-441 339" id="af"/><path d="M158 0v-1490h180v865h22l478-493h223L593-638 1096 0H865L456-523 338-412V0H158" id="ag"/><g id="a"><use transform="matrix(0.010850694444444444,0,0,0.010850694444444444,0,0)" xlink:href="#ad"/><use transform="matrix(0.010850694444444444,0,0,0.010850694444444444,7.378472222222222,0)" xlink:href="#ae"/><use transform="matrix(0.010850694444444444,0,0,0.010850694444444444,19.856770833333332,0)" xlink:href="#af"/><use transform="matrix(0.010850694444444444,0,0,0.010850694444444444,31.586371527777775,0)" xlink:href="#ag"/></g><path d="M1096 418H916v-591h-14C865-111 790 24 577 24c-279 0-473-224-473-580 0-354 195-576 474-576 218 0 287 134 324 193h20v-179h174V418zM604-137c203 0 314-172 314-421 0-247-108-413-314-413-212 0-317 181-317 413 0 235 108 421 317 421" id="ah"/><path d="M537 14c-226 0-379-139-379-422v-710h180v695c0 172 97 275 253 275 160 0 281-109 281-300v-670h181V0H879v-209C806-46 684 14 537 14" id="ai"/><path d="M628 24c-324 0-524-230-524-574 0-343 198-582 503-582 237 0 487 146 487 559v75H286c9 234 145 362 343 362 132 0 231-58 273-172l174 48C1024-91 857 24 628 24zM287-650h624c-17-190-120-322-304-322-192 0-309 151-320 322" id="aj"/><g id="b"><use transform="matrix(0.010850694444444444,0,0,0.010850694444444444,0,0)" xlink:href="#ah"/><use transform="matrix(0.010850694444444444,0,0,0.010850694444444444,13.606770833333332,0)" xlink:href="#ai"/><use transform="matrix(0.010850694444444444,0,0,0.010850694444444444,26.746961805555554,0)" xlink:href="#aj"/><use transform="matrix(0.010850694444444444,0,0,0.010850694444444444,39.70269097222222,0)" xlink:href="#ai"/><use transform="matrix(0.010850694444444444,0,0,0.010850694444444444,52.84288194444444,0)" xlink:href="#aj"/></g><path d="M338-1490V0H158v-1490h180" id="ak"/><path d="M158 0v-1118h180V0H158zm91-1301c-68 0-125-53-125-119s57-119 125-119c69 0 126 53 126 119s-57 119-126 119" id="al"/><path d="M613 24c-304 0-509-231-509-576 0-350 205-580 509-580 216 0 392 114 453 309l-173 49c-33-115-133-197-280-197-223 0-326 196-326 419 0 220 103 415 326 415 150 0 252-85 285-206l172 49C1010-95 832 24 613 24" id="am"/><g id="c"><use transform="matrix(0.010850694444444444,0,0,0.010850694444444444,0,0)" xlink:href="#aj"/><use transform="matrix(0.010850694444444444,0,0,0.010850694444444444,12.955729166666666,0)" xlink:href="#ak"/><use transform="matrix(0.010850694444444444,0,0,0.010850694444444444,18.33767361111111,0)" xlink:href="#ae"/><use transform="matrix(0.010850694444444444,0,0,0.010850694444444444,30.81597222222222,0)" xlink:href="#af"/><use transform="matrix(0.010850694444444444,0,0,0.010850694444444444,42.545572916666664,0)" xlink:href="#ad"/><use transform="matrix(0.010850694444444444,0,0,0.010850694444444444,49.81553819444444,0)" xlink:href="#al"/><use transform="matrix(0.010850694444444444,0,0,0.010850694444444444,55.197482638888886,0)" xlink:href="#am"/></g><path d="M409 0L70-1118h191c89 329 165 560 243 925 75-353 154-601 240-925h192c85 325 161 564 235 922 77-354 157-598 244-922h191L1267 0h-179c-86-307-176-590-250-913C763-588 675-308 588 0H409" id="an"/><path d="M613 24c-304 0-509-231-509-576 0-350 205-580 509-580 305 0 511 230 511 580 0 345-206 576-511 576zm0-161c226 0 329-195 329-415 0-222-103-419-329-419-223 0-326 196-326 419 0 220 103 415 326 415" id="ao"/><path d="M158 0v-1118h174v172h12c41-113 157-188 290-188 26 0 70 2 91 3v181c-11-2-60-10-108-10-161 0-279 109-279 260V0H158" id="ap"/><g id="d"><use transform="matrix(0.010850694444444444,0,0,0.010850694444444444,0,0)" xlink:href="#an"/><use transform="matrix(0.010850694444444444,0,0,0.010850694444444444,17.784288194444446,0)" xlink:href="#ao"/><use transform="matrix(0.010850694444444444,0,0,0.010850694444444444,31.10894097222222,0)" xlink:href="#ap"/><use transform="matrix(0.010850694444444444,0,0,0.010850694444444444,39.82204861111111,0)" xlink:href="#ag"/><use transform="matrix(0.010850694444444444,0,0,0.010850694444444444,51.51909722222222,0)" xlink:href="#aj"/><use transform="matrix(0.010850694444444444,0,0,0.010850694444444444,64.47482638888889,0)" xlink:href="#ap"/></g><g id="e"><use transform="matrix(0.010850694444444444,0,0,0.010850694444444444,0,0)" xlink:href="#an"/><use transform="matrix(0.010850694444444444,0,0,0.010850694444444444,17.784288194444446,0)" xlink:href="#ao"/><use transform="matrix(0.010850694444444444,0,0,0.010850694444444444,31.10894097222222,0)" xlink:href="#ap"/><use transform="matrix(0.010850694444444444,0,0,0.010850694444444444,39.82204861111111,0)" xlink:href="#ag"/><use transform="matrix(0.010850694444444444,0,0,0.010850694444444444,51.51909722222222,0)" xlink:href="#aj"/><use transform="matrix(0.010850694444444444,0,0,0.010850694444444444,64.47482638888889,0)" xlink:href="#ap"/></g><path d="M158 418v-1536h174v179h20c37-59 106-193 324-193 279 0 474 222 474 576 0 356-194 580-473 580-213 0-288-135-325-197h-14v591H158zm492-555c209 0 317-186 317-421 0-232-105-413-317-413-206 0-314 166-314 413 0 249 111 421 314 421" id="aq"/><g id="f"><use transform="matrix(0.010850694444444444,0,0,0.010850694444444444,0,0)" xlink:href="#aq"/><use transform="matrix(0.010850694444444444,0,0,0.010850694444444444,13.606770833333332,0)" xlink:href="#ao"/><use transform="matrix(0.010850694444444444,0,0,0.010850694444444444,26.931423611111104,0)" xlink:href="#ao"/><use transform="matrix(0.010850694444444444,0,0,0.010850694444444444,40.256076388888886,0)" xlink:href="#ak"/></g><path d="M657 26c-323 0-524-166-541-416h195c15 169 171 246 346 246 202 0 356-106 356-265 5-203-294-238-475-293-239-73-380-191-380-389 0-252 224-419 512-419 294 0 499 171 508 396H992c-17-145-151-228-328-228-193 0-321 102-321 242 0 156 175 211 284 241l149 41c160 44 422 134 422 412 0 244-197 432-541 432" id="ar"/><g id="g"><use transform="matrix(0.010850694444444444,0,0,0.010850694444444444,0,0)" xlink:href="#ar"/><use transform="matrix(0.010850694444444444,0,0,0.010850694444444444,14.2578125,0)" xlink:href="#ad"/><use transform="matrix(0.010850694444444444,0,0,0.010850694444444444,21.63628472222222,0)" xlink:href="#ae"/><use transform="matrix(0.010850694444444444,0,0,0.010850694444444444,34.11458333333333,0)" xlink:href="#ap"/><use transform="matrix(0.010850694444444444,0,0,0.010850694444444444,42.827690972222214,0)" xlink:href="#ad"/></g><g id="h"><use transform="matrix(0.010850694444444444,0,0,0.010850694444444444,0,0)" xlink:href="#ap"/><use transform="matrix(0.010850694444444444,0,0,0.010850694444444444,7.996961805555555,0)" xlink:href="#aj"/><use transform="matrix(0.010850694444444444,0,0,0.010850694444444444,20.95269097222222,0)" xlink:href="#ah"/><use transform="matrix(0.010850694444444444,0,0,0.010850694444444444,34.55946180555556,0)" xlink:href="#ai"/><use transform="matrix(0.010850694444444444,0,0,0.010850694444444444,47.69965277777778,0)" xlink:href="#aj"/><use transform="matrix(0.010850694444444444,0,0,0.010850694444444444,60.65538194444444,0)" xlink:href="#af"/><use transform="matrix(0.010850694444444444,0,0,0.010850694444444444,72.38498263888889,0)" xlink:href="#ad"/></g><path d="M338-670V0H158v-1118h173l1 207c72-158 192-221 342-221 226 0 378 139 378 422V0H872v-695c0-172-96-275-252-275-161 0-282 109-282 300" id="as"/><path d="M577 24c-279 0-473-224-473-580 0-354 195-576 474-576 218 0 287 134 324 193h14v-551h180V0H922v-173h-20C865-111 790 24 577 24zm27-161c203 0 314-172 314-421 0-247-108-413-314-413-212 0-317 181-317 413 0 235 108 421 317 421" id="at"/><g id="i"><use transform="matrix(0.010850694444444444,0,0,0.010850694444444444,0,0)" xlink:href="#af"/><use transform="matrix(0.010850694444444444,0,0,0.010850694444444444,11.729600694444445,0)" xlink:href="#aj"/><use transform="matrix(0.010850694444444444,0,0,0.010850694444444444,24.68532986111111,0)" xlink:href="#as"/><use transform="matrix(0.010850694444444444,0,0,0.010850694444444444,37.814670138888886,0)" xlink:href="#at"/></g><use transform="matrix(0.010850694444444444,0,0,0.010850694444444444,0,0)" xlink:href="#ae" id="j"/><g id="k"><use transform="matrix(0.010850694444444444,0,0,0.010850694444444444,0,0)" xlink:href="#ad"/><use transform="matrix(0.010850694444444444,0,0,0.010850694444444444,7.378472222222222,0)" xlink:href="#ae"/><use transform="matrix(0.010850694444444444,0,0,0.010850694444444444,19.856770833333332,0)" xlink:href="#af"/><use transform="matrix(0.010850694444444444,0,0,0.010850694444444444,31.586371527777775,0)" xlink:href="#ag"/></g><path d="M140 405l46-156c120 36 205 19 263-150l32-93L54-1118h197c107 313 237 620 324 950 87-331 219-637 326-950h196L606 167c-68 178-176 259-334 259-64 0-113-12-132-21" id="au"/><g id="l"><use transform="matrix(0.010850694444444444,0,0,0.010850694444444444,0,0)" xlink:href="#ae"/><use transform="matrix(0.010850694444444444,0,0,0.010850694444444444,12.47829861111111,0)" xlink:href="#as"/><use transform="matrix(0.010850694444444444,0,0,0.010850694444444444,25.282118055555554,0)" xlink:href="#au"/></g><g id="m"><use transform="matrix(0.010850694444444444,0,0,0.010850694444444444,0,0)" xlink:href="#al"/><use transform="matrix(0.010850694444444444,0,0,0.010850694444444444,5.381944444444445,0)" xlink:href="#at"/><use transform="matrix(0.010850694444444444,0,0,0.010850694444444444,18.98871527777778,0)" xlink:href="#ak"/><use transform="matrix(0.010850694444444444,0,0,0.010850694444444444,24.37065972222222,0)" xlink:href="#aj"/></g><path d="M383-449c-3-277 82-343 222-425 88-53 156-134 156-250 0-139-108-227-243-227-118 0-235 70-246 236H82c10-251 200-395 436-395 259 0 427 165 427 393 0 161-74 273-203 352-132 80-180 132-178 316H383zm93 462c-75 0-135-60-135-134 0-75 60-135 135-135 74 0 134 60 134 135 0 74-60 134-134 134" id="av"/><g id="n"><use transform="matrix(0.010850694444444444,0,0,0.010850694444444444,0,0)" xlink:href="#an"/><use transform="matrix(0.010850694444444444,0,0,0.010850694444444444,17.784288194444446,0)" xlink:href="#ao"/><use transform="matrix(0.010850694444444444,0,0,0.010850694444444444,31.10894097222222,0)" xlink:href="#ap"/><use transform="matrix(0.010850694444444444,0,0,0.010850694444444444,39.82204861111111,0)" xlink:href="#ag"/><use transform="matrix(0.010850694444444444,0,0,0.010850694444444444,51.51909722222222,0)" xlink:href="#aj"/><use transform="matrix(0.010850694444444444,0,0,0.010850694444444444,64.47482638888889,0)" xlink:href="#ap"/><use transform="matrix(0.010850694444444444,0,0,0.010850694444444444,72.84071180555556,0)" xlink:href="#av"/></g><g id="o"><use transform="matrix(0.010850694444444444,0,0,0.010850694444444444,0,0)" xlink:href="#ap"/><use transform="matrix(0.010850694444444444,0,0,0.010850694444444444,7.996961805555555,0)" xlink:href="#aj"/><use transform="matrix(0.010850694444444444,0,0,0.010850694444444444,20.95269097222222,0)" xlink:href="#ad"/><use transform="matrix(0.010850694444444444,0,0,0.010850694444444444,28.22265625,0)" xlink:href="#ai"/><use transform="matrix(0.010850694444444444,0,0,0.010850694444444444,41.36284722222222,0)" xlink:href="#ap"/><use transform="matrix(0.010850694444444444,0,0,0.010850694444444444,50.07595486111111,0)" xlink:href="#as"/></g><path d="M678-1118v154H420V0H240v-964H20v-154h220v-149c0-194 155-293 318-293 85 0 141 18 168 30l-50 154c-19-6-47-17-97-17-111 0-159 58-159 166v109h258" id="aw"/><g id="p"><use transform="matrix(0.010850694444444444,0,0,0.010850694444444444,0,0)" xlink:href="#ai"/><use transform="matrix(0.010850694444444444,0,0,0.010850694444444444,13.140190972222221,0)" xlink:href="#as"/><use transform="matrix(0.010850694444444444,0,0,0.010850694444444444,26.26953125,0)" xlink:href="#at"/><use transform="matrix(0.010850694444444444,0,0,0.010850694444444444,39.87630208333333,0)" xlink:href="#aj"/><use transform="matrix(0.010850694444444444,0,0,0.010850694444444444,52.832031249999986,0)" xlink:href="#aw"/><use transform="matrix(0.010850694444444444,0,0,0.010850694444444444,61.056857638888886,0)" xlink:href="#al"/><use transform="matrix(0.010850694444444444,0,0,0.010850694444444444,66.43880208333333,0)" xlink:href="#as"/><use transform="matrix(0.010850694444444444,0,0,0.010850694444444444,79.5681423611111,0)" xlink:href="#aj"/><use transform="matrix(0.010850694444444444,0,0,0.010850694444444444,92.52387152777777,0)" xlink:href="#at"/></g><path fill="#333" d="M135 0v-1490h340l471 754c59 97 122 210 187 365-32-387-14-721-19-1119h312V0h-341C855-382 627-689 427-1113c32 420 16 695 20 1113H135" id="ax"/><path fill="#333" d="M628 22C291 22 81-210 81-554c0-346 210-578 547-578 336 0 547 232 547 578 0 344-211 576-547 576zm0-236c160 0 242-146 242-341 0-197-82-341-242-341S387-753 387-555c0 195 81 341 241 341" id="ay"/><g id="q"><use transform="matrix(0.008680555555555556,0,0,0.008680555555555556,0,0)" xlink:href="#ax"/><use transform="matrix(0.008680555555555556,0,0,0.008680555555555556,13.550347222222223,0)" xlink:href="#ay"/></g><g id="r"><use transform="matrix(0.010850694444444444,0,0,0.010850694444444444,0,0)" xlink:href="#ag"/><use transform="matrix(0.010850694444444444,0,0,0.010850694444444444,11.69704861111111,0)" xlink:href="#aj"/><use transform="matrix(0.010850694444444444,0,0,0.010850694444444444,24.65277777777778,0)" xlink:href="#aj"/><use transform="matrix(0.010850694444444444,0,0,0.010850694444444444,37.60850694444444,0)" xlink:href="#aq"/></g><g id="s"><use transform="matrix(0.010850694444444444,0,0,0.010850694444444444,0,0)" xlink:href="#ad"/><use transform="matrix(0.010850694444444444,0,0,0.010850694444444444,7.378472222222222,0)" xlink:href="#ae"/><use transform="matrix(0.010850694444444444,0,0,0.010850694444444444,19.856770833333332,0)" xlink:href="#af"/><use transform="matrix(0.010850694444444444,0,0,0.010850694444444444,31.586371527777775,0)" xlink:href="#ag"/></g><g id="t"><use transform="matrix(0.010850694444444444,0,0,0.010850694444444444,0,0)" xlink:href="#al"/><use transform="matrix(0.010850694444444444,0,0,0.010850694444444444,5.381944444444445,0)" xlink:href="#as"/></g><g id="u"><use transform="matrix(0.010850694444444444,0,0,0.010850694444444444,0,0)" xlink:href="#ad"/><use transform="matrix(0.010850694444444444,0,0,0.010850694444444444,7.378472222222222,0)" xlink:href="#ae"/><use transform="matrix(0.010850694444444444,0,0,0.010850694444444444,19.856770833333332,0)" xlink:href="#af"/><use transform="matrix(0.010850694444444444,0,0,0.010850694444444444,31.586371527777775,0)" xlink:href="#ag"/></g><path d="M65 0l393-574-370-544h210c88 136 192 297 267 435 67-142 176-302 264-435h206L661-564 1053 0H844c-94-144-206-310-287-458C484-308 366-142 273 0H65" id="az"/><g id="v"><use transform="matrix(0.010850694444444444,0,0,0.010850694444444444,0,0)" xlink:href="#aj"/><use transform="matrix(0.010850694444444444,0,0,0.010850694444444444,12.456597222222221,0)" xlink:href="#az"/><use transform="matrix(0.010850694444444444,0,0,0.010850694444444444,24.088541666666664,0)" xlink:href="#aj"/><use transform="matrix(0.010850694444444444,0,0,0.010850694444444444,37.04427083333333,0)" xlink:href="#am"/><use transform="matrix(0.010850694444444444,0,0,0.010850694444444444,49.73958333333333,0)" xlink:href="#ai"/><use transform="matrix(0.010850694444444444,0,0,0.010850694444444444,62.87977430555555,0)" xlink:href="#ad"/><use transform="matrix(0.010850694444444444,0,0,0.010850694444444444,69.93272569444444,0)" xlink:href="#aj"/></g><g id="w"><use transform="matrix(0.010850694444444444,0,0,0.010850694444444444,0,0)" xlink:href="#ap"/><use transform="matrix(0.010850694444444444,0,0,0.010850694444444444,7.996961805555555,0)" xlink:href="#aj"/><use transform="matrix(0.010850694444444444,0,0,0.010850694444444444,20.95269097222222,0)" xlink:href="#ak"/><use transform="matrix(0.010850694444444444,0,0,0.010850694444444444,26.334635416666664,0)" xlink:href="#aj"/><use transform="matrix(0.010850694444444444,0,0,0.010850694444444444,39.50737847222222,0)" xlink:href="#ae"/><use transform="matrix(0.010850694444444444,0,0,0.010850694444444444,51.98567708333333,0)" xlink:href="#af"/><use transform="matrix(0.010850694444444444,0,0,0.010850694444444444,63.71527777777778,0)" xlink:href="#aj"/></g><path d="M611 442c-248 0-391-105-460-228l146-94c47 65 117 165 314 165 178 0 307-82 307-266v-224h-17C863-141 792-18 576-18c-268 0-472-195-472-546 0-346 197-568 476-568 216 0 288 133 326 193h17v-179h175V29c0 289-215 413-487 413zm-5-620c203 0 314-146 314-390 0-237-108-403-314-403-213 0-319 180-319 403 0 230 109 390 319 390" id="aA"/><g id="x"><use transform="matrix(0.010850694444444444,0,0,0.010850694444444444,0,0)" xlink:href="#aA"/><use transform="matrix(0.010850694444444444,0,0,0.010850694444444444,13.628472222222221,0)" xlink:href="#aj"/><use transform="matrix(0.010850694444444444,0,0,0.010850694444444444,26.58420138888889,0)" xlink:href="#ad"/></g><g id="y"><use transform="matrix(0.010850694444444444,0,0,0.010850694444444444,0,0)" xlink:href="#aq"/><use transform="matrix(0.010850694444444444,0,0,0.010850694444444444,13.606770833333332,0)" xlink:href="#aj"/><use transform="matrix(0.010850694444444444,0,0,0.010850694444444444,26.5625,0)" xlink:href="#as"/><use transform="matrix(0.010850694444444444,0,0,0.010850694444444444,39.69184027777778,0)" xlink:href="#at"/><use transform="matrix(0.010850694444444444,0,0,0.010850694444444444,53.29861111111112,0)" xlink:href="#al"/><use transform="matrix(0.010850694444444444,0,0,0.010850694444444444,58.68055555555555,0)" xlink:href="#as"/><use transform="matrix(0.010850694444444444,0,0,0.010850694444444444,71.80989583333333,0)" xlink:href="#aA"/></g><path d="M338-670V0H158v-1490h180v566c73-149 190-208 336-208 226 0 379 139 379 422V0H872v-695c0-172-96-275-252-275-161 0-282 109-282 300" id="aB"/><g id="z"><use transform="matrix(0.010850694444444444,0,0,0.010850694444444444,0,0)" xlink:href="#aB"/><use transform="matrix(0.010850694444444444,0,0,0.010850694444444444,13.140190972222221,0)" xlink:href="#ae"/><use transform="matrix(0.010850694444444444,0,0,0.010850694444444444,25.618489583333332,0)" xlink:href="#af"/></g><path fill="#333" d="M601 0v-560L49-1490h357l252 464c38 68 67 130 97 208 96-243 225-446 337-672h356L905-560V0H601" id="aC"/><path fill="#333" d="M633 22C291 22 81-200 81-553c0-345 210-579 537-579 292 0 525 185 525 567v84H378c7 183 109 277 260 277 105 0 184-46 216-132l272 51C1071-99 893 22 633 22zM380-669h474c-15-146-94-237-233-237-143 0-229 99-241 237" id="aD"/><path fill="#333" d="M572 22C302 22 117-98 78-306l279-48c29 105 101 156 224 156 114 0 185-48 185-115 0-118-228-130-337-155-215-49-322-150-322-317 0-215 187-347 470-347 265 0 424 116 466 298l-266 47c-24-76-87-130-196-130-98 0-174 46-174 113 0 56 38 95 144 117l201 40c216 44 320 143 320 302 0 220-207 367-500 367" id="aE"/><g id="A"><use transform="matrix(0.008680555555555556,0,0,0.008680555555555556,0,0)" xlink:href="#aC"/><use transform="matrix(0.008680555555555556,0,0,0.008680555555555556,11.050347222222223,0)" xlink:href="#aD"/><use transform="matrix(0.008680555555555556,0,0,0.008680555555555556,21.640625,0)" xlink:href="#aE"/></g><g id="B"><use transform="matrix(0.010850694444444444,0,0,0.010850694444444444,0,0)" xlink:href="#ah"/><use transform="matrix(0.010850694444444444,0,0,0.010850694444444444,13.606770833333332,0)" xlink:href="#ai"/><use transform="matrix(0.010850694444444444,0,0,0.010850694444444444,26.746961805555554,0)" xlink:href="#aj"/><use transform="matrix(0.010850694444444444,0,0,0.010850694444444444,39.70269097222222,0)" xlink:href="#ai"/><use transform="matrix(0.010850694444444444,0,0,0.010850694444444444,52.84288194444444,0)" xlink:href="#aj"/></g><path d="M180 0v-1490h908v168H370v486h669v168H370v500h727V0H180" id="aF"/><g id="C"><use transform="matrix(0.010850694444444444,0,0,0.010850694444444444,0,0)" xlink:href="#aF"/><use transform="matrix(0.010850694444444444,0,0,0.010850694444444444,13.35720486111111,0)" xlink:href="#as"/><use transform="matrix(0.010850694444444444,0,0,0.010850694444444444,26.48654513888889,0)" xlink:href="#at"/></g><g id="D"><use transform="matrix(0.010850694444444444,0,0,0.010850694444444444,0,0)" xlink:href="#at"/><use transform="matrix(0.010850694444444444,0,0,0.010850694444444444,13.606770833333332,0)" xlink:href="#aj"/><use transform="matrix(0.010850694444444444,0,0,0.010850694444444444,26.5625,0)" xlink:href="#ah"/><use transform="matrix(0.010850694444444444,0,0,0.010850694444444444,40.16927083333333,0)" xlink:href="#ai"/><use transform="matrix(0.010850694444444444,0,0,0.010850694444444444,53.30946180555556,0)" xlink:href="#aj"/><use transform="matrix(0.010850694444444444,0,0,0.010850694444444444,66.26519097222221,0)" xlink:href="#ai"/><use transform="matrix(0.010850694444444444,0,0,0.010850694444444444,79.40538194444443,0)" xlink:href="#aj"/></g><path d="M645 0H180v-1490h484c435 0 692 280 692 742 0 466-257 748-711 748zM370-168h263c363 0 539-218 539-580 0-358-176-574-521-574H370v1154" id="aG"/><g id="E"><use transform="matrix(0.010850694444444444,0,0,0.010850694444444444,0,0)" xlink:href="#aG"/><use transform="matrix(0.010850694444444444,0,0,0.010850694444444444,16.03732638888889,0)" xlink:href="#aj"/><use transform="matrix(0.010850694444444444,0,0,0.010850694444444444,28.99305555555556,0)" xlink:href="#ak"/><use transform="matrix(0.010850694444444444,0,0,0.010850694444444444,34.375,0)" xlink:href="#ae"/><use transform="matrix(0.010850694444444444,0,0,0.010850694444444444,46.52777777777778,0)" xlink:href="#au"/></g><g id="F"><use transform="matrix(0.010850694444444444,0,0,0.010850694444444444,0,0)" xlink:href="#al"/><use transform="matrix(0.010850694444444444,0,0,0.010850694444444444,5.381944444444445,0)" xlink:href="#at"/><use transform="matrix(0.010850694444444444,0,0,0.010850694444444444,18.98871527777778,0)" xlink:href="#ak"/><use transform="matrix(0.010850694444444444,0,0,0.010850694444444444,24.37065972222222,0)" xlink:href="#aj"/></g><path d="M158 0v-1118h175l1 205c55-151 181-225 313-225 147 0 245 90 285 228 53-141 190-228 352-228 194 0 352 125 352 384V0h-181v-749c0-161-105-225-225-225-151 0-243 103-243 244V0H807v-767c0-124-93-207-219-207-131 0-250 92-250 270V0H158" id="aH"/><g id="G"><use transform="matrix(0.010850694444444444,0,0,0.010850694444444444,0,0)" xlink:href="#ad"/><use transform="matrix(0.010850694444444444,0,0,0.010850694444444444,7.052951388888888,0)" xlink:href="#aj"/><use transform="matrix(0.010850694444444444,0,0,0.010850694444444444,20.008680555555554,0)" xlink:href="#ap"/><use transform="matrix(0.010850694444444444,0,0,0.010850694444444444,28.721788194444443,0)" xlink:href="#aH"/><use transform="matrix(0.010850694444444444,0,0,0.010850694444444444,48.18793402777778,0)" xlink:href="#al"/><use transform="matrix(0.010850694444444444,0,0,0.010850694444444444,53.56987847222221,0)" xlink:href="#as"/><use transform="matrix(0.010850694444444444,0,0,0.010850694444444444,66.69921874999999,0)" xlink:href="#ae"/><use transform="matrix(0.010850694444444444,0,0,0.010850694444444444,79.1775173611111,0)" xlink:href="#ad"/><use transform="matrix(0.010850694444444444,0,0,0.010850694444444444,86.23046874999999,0)" xlink:href="#aj"/></g><g id="H"><use transform="matrix(0.010850694444444444,0,0,0.010850694444444444,0,0)" xlink:href="#am"/><use transform="matrix(0.010850694444444444,0,0,0.010850694444444444,12.91232638888889,0)" xlink:href="#ae"/><use transform="matrix(0.010850694444444444,0,0,0.010850694444444444,25.390625,0)" xlink:href="#as"/><use transform="matrix(0.010850694444444444,0,0,0.010850694444444444,38.51996527777778,0)" xlink:href="#am"/><use transform="matrix(0.010850694444444444,0,0,0.010850694444444444,51.21527777777778,0)" xlink:href="#aj"/><use transform="matrix(0.010850694444444444,0,0,0.010850694444444444,64.17100694444444,0)" xlink:href="#ak"/></g><g id="I"><use transform="matrix(0.010850694444444444,0,0,0.010850694444444444,0,0)" xlink:href="#an"/><use transform="matrix(0.010850694444444444,0,0,0.010850694444444444,17.784288194444446,0)" xlink:href="#ao"/><use transform="matrix(0.010850694444444444,0,0,0.010850694444444444,31.10894097222222,0)" xlink:href="#ap"/><use transform="matrix(0.010850694444444444,0,0,0.010850694444444444,39.82204861111111,0)" xlink:href="#ag"/><use transform="matrix(0.010850694444444444,0,0,0.010850694444444444,51.51909722222222,0)" xlink:href="#aj"/><use transform="matrix(0.010850694444444444,0,0,0.010850694444444444,64.47482638888889,0)" xlink:href="#ap"/></g><g id="J"><use transform="matrix(0.010850694444444444,0,0,0.010850694444444444,0,0)" xlink:href="#ad"/><use transform="matrix(0.010850694444444444,0,0,0.010850694444444444,7.052951388888888,0)" xlink:href="#aj"/><use transform="matrix(0.010850694444444444,0,0,0.010850694444444444,20.008680555555554,0)" xlink:href="#ap"/><use transform="matrix(0.010850694444444444,0,0,0.010850694444444444,28.721788194444443,0)" xlink:href="#aH"/><use transform="matrix(0.010850694444444444,0,0,0.010850694444444444,48.18793402777778,0)" xlink:href="#al"/><use transform="matrix(0.010850694444444444,0,0,0.010850694444444444,53.56987847222221,0)" xlink:href="#as"/><use transform="matrix(0.010850694444444444,0,0,0.010850694444444444,66.69921874999999,0)" xlink:href="#ae"/><use transform="matrix(0.010850694444444444,0,0,0.010850694444444444,79.1775173611111,0)" xlink:href="#ad"/><use transform="matrix(0.010850694444444444,0,0,0.010850694444444444,86.44748263888887,0)" xlink:href="#al"/><use transform="matrix(0.010850694444444444,0,0,0.010850694444444444,91.82942708333331,0)" xlink:href="#ao"/><use transform="matrix(0.010850694444444444,0,0,0.010850694444444444,105.15407986111109,0)" xlink:href="#as"/></g><g id="K"><use transform="matrix(0.010850694444444444,0,0,0.010850694444444444,0,0)" xlink:href="#ao"/><use transform="matrix(0.010850694444444444,0,0,0.010850694444444444,13.324652777777777,0)" xlink:href="#as"/></g><g id="L"><use transform="matrix(0.010850694444444444,0,0,0.010850694444444444,0,0)" xlink:href="#ad"/><use transform="matrix(0.010850694444444444,0,0,0.010850694444444444,7.052951388888888,0)" xlink:href="#aj"/><use transform="matrix(0.010850694444444444,0,0,0.010850694444444444,20.008680555555554,0)" xlink:href="#ap"/><use transform="matrix(0.010850694444444444,0,0,0.010850694444444444,28.721788194444443,0)" xlink:href="#aH"/><use transform="matrix(0.010850694444444444,0,0,0.010850694444444444,48.18793402777778,0)" xlink:href="#al"/><use transform="matrix(0.010850694444444444,0,0,0.010850694444444444,53.56987847222221,0)" xlink:href="#as"/><use transform="matrix(0.010850694444444444,0,0,0.010850694444444444,66.69921874999999,0)" xlink:href="#ae"/><use transform="matrix(0.010850694444444444,0,0,0.010850694444444444,79.1775173611111,0)" xlink:href="#ad"/><use transform="matrix(0.010850694444444444,0,0,0.010850694444444444,86.44748263888887,0)" xlink:href="#al"/><use transform="matrix(0.010850694444444444,0,0,0.010850694444444444,91.82942708333331,0)" xlink:href="#ao"/><use transform="matrix(0.010850694444444444,0,0,0.010850694444444444,105.15407986111109,0)" xlink:href="#as"/><use transform="matrix(0.010850694444444444,0,0,0.010850694444444444,118.28342013888887,0)" xlink:href="#av"/></g><g id="M"><use transform="matrix(0.010850694444444444,0,0,0.010850694444444444,0,0)" xlink:href="#aq"/><use transform="matrix(0.010850694444444444,0,0,0.010850694444444444,13.606770833333332,0)" xlink:href="#ao"/><use transform="matrix(0.010850694444444444,0,0,0.010850694444444444,26.931423611111104,0)" xlink:href="#ao"/><use transform="matrix(0.010850694444444444,0,0,0.010850694444444444,40.256076388888886,0)" xlink:href="#ak"/></g><path d="M126 0v-134l627-806v-11H146v-167h839v143L376-178v11h629V0H126" id="aI"/><g id="N"><use transform="matrix(0.010850694444444444,0,0,0.010850694444444444,0,0)" xlink:href="#af"/><use transform="matrix(0.010850694444444444,0,0,0.010850694444444444,11.729600694444445,0)" xlink:href="#al"/><use transform="matrix(0.010850694444444444,0,0,0.010850694444444444,17.11154513888889,0)" xlink:href="#aI"/><use transform="matrix(0.010850694444444444,0,0,0.010850694444444444,29.05815972222222,0)" xlink:href="#aj"/></g><path d="M1181-520L237-44v-194l712-338v-12L237-926v-196l944 476v126" id="aJ"/><path d="M226-283v-166h904v166H226zm0-434v-166h904v166H226" id="aK"/><g id="O"><use transform="matrix(0.010850694444444444,0,0,0.010850694444444444,0,0)" xlink:href="#aJ"/><use transform="matrix(0.010850694444444444,0,0,0.010850694444444444,14.702690972222221,0)" xlink:href="#aK"/></g><g id="P"><use transform="matrix(0.010850694444444444,0,0,0.010850694444444444,0,0)" xlink:href="#aH"/><use transform="matrix(0.010850694444444444,0,0,0.010850694444444444,19.466145833333332,0)" xlink:href="#al"/><use transform="matrix(0.010850694444444444,0,0,0.010850694444444444,24.84809027777778,0)" xlink:href="#as"/></g><g id="Q"><use transform="matrix(0.010850694444444444,0,0,0.010850694444444444,0,0)" xlink:href="#aq"/><use transform="matrix(0.010850694444444444,0,0,0.010850694444444444,13.606770833333332,0)" xlink:href="#ao"/><use transform="matrix(0.010850694444444444,0,0,0.010850694444444444,26.931423611111104,0)" xlink:href="#ao"/><use transform="matrix(0.010850694444444444,0,0,0.010850694444444444,40.256076388888886,0)" xlink:href="#ak"/></g><g id="R"><use transform="matrix(0.010850694444444444,0,0,0.010850694444444444,0,0)" xlink:href="#af"/><use transform="matrix(0.010850694444444444,0,0,0.010850694444444444,11.729600694444445,0)" xlink:href="#al"/><use transform="matrix(0.010850694444444444,0,0,0.010850694444444444,17.11154513888889,0)" xlink:href="#aI"/><use transform="matrix(0.010850694444444444,0,0,0.010850694444444444,29.05815972222222,0)" xlink:href="#aj"/></g><path d="M174-520v-126l944-476v196L406-588v12l712 338v194" id="aL"/><g id="S"><use transform="matrix(0.010850694444444444,0,0,0.010850694444444444,0,0)" xlink:href="#aL"/><use transform="matrix(0.010850694444444444,0,0,0.010850694444444444,14.702690972222221,0)" xlink:href="#aK"/></g><g id="T"><use transform="matrix(0.010850694444444444,0,0,0.010850694444444444,0,0)" xlink:href="#aH"/><use transform="matrix(0.010850694444444444,0,0,0.010850694444444444,19.466145833333332,0)" xlink:href="#ae"/><use transform="matrix(0.010850694444444444,0,0,0.010850694444444444,31.944444444444443,0)" xlink:href="#az"/></g><g id="U"><use transform="matrix(0.010850694444444444,0,0,0.010850694444444444,0,0)" xlink:href="#af"/><use transform="matrix(0.010850694444444444,0,0,0.010850694444444444,11.729600694444445,0)" xlink:href="#aq"/><use transform="matrix(0.010850694444444444,0,0,0.010850694444444444,25.553385416666664,0)" xlink:href="#ae"/><use transform="matrix(0.010850694444444444,0,0,0.010850694444444444,38.03168402777777,0)" xlink:href="#an"/><use transform="matrix(0.010850694444444444,0,0,0.010850694444444444,56.21744791666666,0)" xlink:href="#as"/></g><g id="V"><use transform="matrix(0.010850694444444444,0,0,0.010850694444444444,0,0)" xlink:href="#as"/><use transform="matrix(0.010850694444444444,0,0,0.010850694444444444,13.129340277777777,0)" xlink:href="#aj"/><use transform="matrix(0.010850694444444444,0,0,0.010850694444444444,25.68359375,0)" xlink:href="#an"/></g><path d="M481 0L54-1118h197c107 314 236 620 325 951 87-331 217-637 324-951h197L670 0H481" id="aM"/><g id="W"><use transform="matrix(0.010850694444444444,0,0,0.010850694444444444,0,0)" xlink:href="#ap"/><use transform="matrix(0.010850694444444444,0,0,0.010850694444444444,7.996961805555555,0)" xlink:href="#aj"/><use transform="matrix(0.010850694444444444,0,0,0.010850694444444444,20.95269097222222,0)" xlink:href="#aH"/><use transform="matrix(0.010850694444444444,0,0,0.010850694444444444,40.41883680555556,0)" xlink:href="#ao"/><use transform="matrix(0.010850694444444444,0,0,0.010850694444444444,53.30946180555556,0)" xlink:href="#aM"/><use transform="matrix(0.010850694444444444,0,0,0.010850694444444444,65.36458333333333,0)" xlink:href="#aj"/></g><g id="X"><use transform="matrix(0.010850694444444444,0,0,0.010850694444444444,0,0)" xlink:href="#an"/><use transform="matrix(0.010850694444444444,0,0,0.010850694444444444,17.784288194444446,0)" xlink:href="#ao"/><use transform="matrix(0.010850694444444444,0,0,0.010850694444444444,31.10894097222222,0)" xlink:href="#ap"/><use transform="matrix(0.010850694444444444,0,0,0.010850694444444444,39.82204861111111,0)" xlink:href="#ag"/><use transform="matrix(0.010850694444444444,0,0,0.010850694444444444,51.51909722222222,0)" xlink:href="#aj"/><use transform="matrix(0.010850694444444444,0,0,0.010850694444444444,64.47482638888889,0)" xlink:href="#ap"/></g><g id="Y"><use transform="matrix(0.010850694444444444,0,0,0.010850694444444444,0,0)" xlink:href="#aw"/><use transform="matrix(0.010850694444444444,0,0,0.010850694444444444,8.22482638888889,0)" xlink:href="#ap"/><use transform="matrix(0.010850694444444444,0,0,0.010850694444444444,16.221788194444443,0)" xlink:href="#ao"/><use transform="matrix(0.010850694444444444,0,0,0.010850694444444444,29.54644097222222,0)" xlink:href="#aH"/></g><g id="Z"><use transform="matrix(0.010850694444444444,0,0,0.010850694444444444,0,0)" xlink:href="#ap"/><use transform="matrix(0.010850694444444444,0,0,0.010850694444444444,7.996961805555555,0)" xlink:href="#aj"/><use transform="matrix(0.010850694444444444,0,0,0.010850694444444444,20.95269097222222,0)" xlink:href="#af"/><use transform="matrix(0.010850694444444444,0,0,0.010850694444444444,32.682291666666664,0)" xlink:href="#ai"/><use transform="matrix(0.010850694444444444,0,0,0.010850694444444444,45.822482638888886,0)" xlink:href="#ak"/><use transform="matrix(0.010850694444444444,0,0,0.010850694444444444,51.529947916666664,0)" xlink:href="#ad"/></g><path d="M677 24c-213 0-288-135-325-197h-20V0H158v-1490h180v551h14c37-59 106-193 324-193 279 0 474 222 474 576 0 356-194 580-473 580zm-27-161c209 0 317-186 317-421 0-232-105-413-317-413-206 0-314 166-314 413 0 249 111 421 314 421" id="aN"/><g id="aa"><use transform="matrix(0.010850694444444444,0,0,0.010850694444444444,0,0)" xlink:href="#ae"/><use transform="matrix(0.010850694444444444,0,0,0.010850694444444444,12.47829861111111,0)" xlink:href="#aN"/><use transform="matrix(0.010850694444444444,0,0,0.010850694444444444,26.085069444444443,0)" xlink:href="#ao"/><use transform="matrix(0.010850694444444444,0,0,0.010850694444444444,39.40972222222222,0)" xlink:href="#ap"/><use transform="matrix(0.010850694444444444,0,0,0.010850694444444444,48.12282986111111,0)" xlink:href="#ad"/></g><g id="ab"><use transform="matrix(0.010850694444444444,0,0,0.010850694444444444,0,0)" xlink:href="#ao"/><use transform="matrix(0.010850694444444444,0,0,0.010850694444444444,13.324652777777777,0)" xlink:href="#ap"/></g><g id="ac"><use transform="matrix(0.010850694444444444,0,0,0.010850694444444444,0,0)" xlink:href="#ad"/><use transform="matrix(0.010850694444444444,0,0,0.010850694444444444,7.269965277777778,0)" xlink:href="#al"/><use transform="matrix(0.010850694444444444,0,0,0.010850694444444444,12.651909722222221,0)" xlink:href="#aH"/><use transform="matrix(0.010850694444444444,0,0,0.010850694444444444,32.11805555555556,0)" xlink:href="#aj"/><use transform="matrix(0.010850694444444444,0,0,0.010850694444444444,45.07378472222222,0)" xlink:href="#ao"/><use transform="matrix(0.010850694444444444,0,0,0.010850694444444444,58.3984375,0)" xlink:href="#ai"/><use transform="matrix(0.010850694444444444,0,0,0.010850694444444444,71.53862847222223,0)" xlink:href="#ad"/><use transform="matrix(0.010850694444444444,0,0,0.010850694444444444,78.80859375,0)" xlink:href="#av"/></g></defs></g></svg>